<svg width="55" height="69" viewBox="0 0 55 69" fill="none" xmlns="http://www.w3.org/2000/svg">
<path d="M5.5013 0.445497H14.7962V4.69082H10.9896V8.7134H14.379V12.7491H10.9896V21.659H5.5013V0.445497Z" fill="white"/>
<path d="M21.6272 0.445497V21.659H16.1389V0.445497H21.6272Z" fill="white"/>
<path d="M35.4586 6.8659H30.3615V5.29355C30.3615 4.55979 30.2963 4.09246 30.1659 3.89155C30.0356 3.69064 29.8183 3.59018 29.5141 3.59018C29.1839 3.59018 28.9318 3.72558 28.758 3.99637C28.5929 4.26716 28.5103 4.67772 28.5103 5.22804C28.5103 5.93559 28.6059 6.46844 28.7971 6.82659C28.9796 7.18473 29.4967 7.61713 30.3484 8.12377C32.7906 9.58255 34.3288 10.7793 34.9633 11.714C35.5977 12.6486 35.9149 14.1554 35.9149 16.2344C35.9149 17.7456 35.7367 18.8594 35.3804 19.5757C35.0328 20.292 34.3549 20.8947 33.3468 21.3839C32.3386 21.8643 31.1654 22.1045 29.827 22.1045C28.3582 22.1045 27.1024 21.825 26.0595 21.2659C25.0253 20.7069 24.3474 19.995 24.0258 19.1302C23.7043 18.2654 23.5435 17.0381 23.5435 15.4483V14.0594H28.6407V16.6406C28.6407 17.4355 28.7102 17.9465 28.8493 18.1737C28.997 18.4008 29.2534 18.5143 29.6184 18.5143C29.9834 18.5143 30.2528 18.3702 30.4266 18.0819C30.6092 17.7937 30.7004 17.3656 30.7004 16.7979C30.7004 15.5487 30.5309 14.732 30.192 14.3476C29.8444 13.9633 28.9883 13.3212 27.6238 12.4215C26.2594 11.513 25.3555 10.8535 24.9123 10.443C24.4691 10.0324 24.0997 9.46463 23.8042 8.7396C23.5174 8.01458 23.374 7.08864 23.374 5.9618C23.374 4.33704 23.5783 3.14905 23.9867 2.39782C24.4039 1.64659 25.0731 1.06133 25.9943 0.64204C26.9155 0.214013 28.028 0 29.3316 0C30.7569 0 31.9693 0.231484 32.9687 0.694451C33.9769 1.15742 34.6417 1.74268 34.9633 2.45023C35.2935 3.14905 35.4586 4.34141 35.4586 6.02731V6.8659Z" fill="white"/>
<path d="M50.2678 0.445497V21.659H44.7796V12.7491H43.137V21.659H37.6487V0.445497H43.137V8.03205H44.7796V0.445497H50.2678Z" fill="white"/>
<path d="M1.39488 23.841H5.5013C8.15201 23.841 9.94232 23.9633 10.8722 24.2079C11.8109 24.4524 12.5235 24.8543 13.0102 25.4133C13.4969 25.9724 13.8011 26.5969 13.9227 27.287C14.0444 27.9684 14.1052 29.3136 14.1052 31.3227V38.752C14.1052 40.6563 14.014 41.9317 13.8315 42.5781C13.6577 43.2157 13.3491 43.718 12.9059 44.0849C12.4627 44.443 11.9151 44.6964 11.2633 44.8449C10.6115 44.9846 9.62945 45.0545 8.31714 45.0545H1.39488V23.841ZM6.88315 27.4705V41.425C7.67401 41.425 8.1607 41.2678 8.34321 40.9533C8.52572 40.6301 8.61697 39.7609 8.61697 38.3458V30.1041C8.61697 29.1433 8.58655 28.5274 8.52572 28.2566C8.46488 27.9859 8.32583 27.7893 8.10856 27.667C7.89129 27.536 7.48282 27.4705 6.88315 27.4705Z" fill="#B7FF1A"/>
<path d="M28.6928 36.2625C28.6928 38.3939 28.6407 39.9051 28.5364 40.7961C28.4408 41.6783 28.1279 42.4863 27.5978 43.2201C27.0763 43.9539 26.368 44.5173 25.4729 44.9104C24.5777 45.3035 23.5348 45.5 22.3442 45.5C21.2143 45.5 20.1975 45.3166 19.2937 44.9497C18.3985 44.5741 17.6772 44.015 17.1297 43.2725C16.5821 42.53 16.2562 41.722 16.1519 40.8485C16.0476 39.975 15.9955 38.4463 15.9955 36.2625V32.633C15.9955 30.5016 16.0433 28.9948 16.1389 28.1125C16.2432 27.2215 16.5561 26.4091 17.0775 25.6754C17.6076 24.9416 18.3203 24.3782 19.2155 23.9851C20.1106 23.592 21.1535 23.3955 22.3442 23.3955C23.474 23.3955 24.4865 23.5833 25.3816 23.9589C26.2855 24.3258 27.0111 24.8805 27.5587 25.623C28.1062 26.3655 28.4321 27.1735 28.5364 28.047C28.6407 28.9205 28.6928 30.4492 28.6928 32.633V36.2625ZM23.2046 29.2918C23.2046 28.3047 23.1481 27.6758 23.0351 27.405C22.9308 27.1254 22.7092 26.9857 22.3702 26.9857C22.0834 26.9857 21.8618 27.0992 21.7054 27.3263C21.5576 27.5447 21.4838 28.1999 21.4838 29.2918V39.1975C21.4838 40.4292 21.5316 41.1892 21.6272 41.4774C21.7315 41.7657 21.9661 41.9098 22.3311 41.9098C22.7048 41.9098 22.9438 41.7438 23.0481 41.4119C23.1524 41.08 23.2046 40.2894 23.2046 39.0403V29.2918Z" fill="#B7FF1A"/>
<path d="M43.3456 31.6503H37.8573V29.7242C37.8573 28.51 37.8052 27.75 37.7009 27.4443C37.5966 27.1385 37.3489 26.9857 36.9578 26.9857C36.6189 26.9857 36.3886 27.1167 36.2669 27.3788C36.1452 27.6408 36.0844 28.3134 36.0844 29.3966V39.5775C36.0844 40.5297 36.1452 41.1586 36.2669 41.4643C36.3886 41.7613 36.6319 41.9098 36.9969 41.9098C37.3967 41.9098 37.6661 41.7395 37.8052 41.3988C37.9529 41.0581 38.0268 40.3943 38.0268 39.4072V36.8914H36.9187V33.6681H43.3456V45.0545H39.891L39.3826 43.5346C39.0089 44.1897 38.5352 44.6833 37.9616 45.0152C37.3967 45.3384 36.7275 45.5 35.954 45.5C35.0328 45.5 34.1681 45.2772 33.3598 44.8318C32.5602 44.3775 31.9519 43.8185 31.5347 43.1546C31.1176 42.4907 30.8568 41.7963 30.7526 41.0712C30.6483 40.3375 30.5961 39.2412 30.5961 37.7824V31.4799C30.5961 29.4534 30.7047 27.9815 30.922 27.0643C31.1393 26.1471 31.7607 25.3085 32.7862 24.5485C33.8204 23.7798 35.1545 23.3955 36.7883 23.3955C38.3961 23.3955 39.7302 23.7274 40.7905 24.3913C41.8508 25.0552 42.5417 25.8457 42.8632 26.7629C43.1848 27.6714 43.3456 28.9948 43.3456 30.7331V31.6503Z" fill="#B7FF1A"/>
<path d="M45.4835 23.841H54.635V28.0863H50.9718V32.1089H54.4003V36.1446H50.9718V40.8092H55V45.0545H45.4835V23.841Z" fill="#B7FF1A"/>
<path d="M11.9934 47.2865V51.5318H8.7343V68.5H3.24603V51.5318H0V47.2865H11.9934Z" fill="white"/>
<path d="M13.2448 47.2865H22.3963V51.5318H18.7331V55.5544H22.1616V59.5901H18.7331V64.2547H22.7613V68.5H13.2448V47.2865Z" fill="white"/>
<path d="M33.8291 47.2865L36.9708 68.5H31.3522L31.0785 64.6871H29.11L28.7841 68.5H23.1003L25.89 47.2865H33.8291ZM30.922 60.9265C30.6439 58.5244 30.3658 55.5587 30.0877 52.0297C29.5315 56.0829 29.1839 59.0485 29.0448 60.9265H30.922Z" fill="white"/>
<path d="M54.8436 47.2865V68.5H50.0462V54.1786L48.1299 68.5H44.7274L42.7068 54.5061V68.5H37.9095V47.2865H45.0142C45.2228 48.5618 45.4444 50.0643 45.6791 51.7939L46.4352 57.1922L47.6867 47.2865H54.8436Z" fill="white"/>
</svg>
