<svg id="eDHAkht3Pzi1" xmlns="http://www.w3.org/2000/svg" xmlns:xlink="http://www.w3.org/1999/xlink" viewBox="0 0 28 32" shape-rendering="geometricPrecision" text-rendering="geometricPrecision"><path d="M13.5649,31.8619c.1772.0925.3753.1396.5735.138.1981-.0015.3946-.0502.5734-.1443l5.7086-3.0517c1.6188-.8629,2.8865-1.8278,3.8755-2.9512c2.1504-2.4476,3.3247-5.5714,3.3038-8.7925L27.532,6.43517c-.0064-1.22379-.8102-2.31579-1.999-2.71274L14.9131,0.159303c-.6394-.216518-1.3401-.211811-1.9683.010983L2.36516,3.8605c-1.18232.41264-1.971601,1.51248-1.965157,2.73784L0.467655,17.2155c.02094,3.2258,1.235465,6.3355,3.421295,8.758.99869,1.1077,2.27765,2.0585,3.9142,2.9073l5.76175,2.9811ZM12.0537,19.3743c.2384.2291.5477.342.8569.3389.3093-.0016.617-.1177.8521-.3499l6.2386-6.1503c.4687-.4629.4639-1.2066-.0097-1.6632-.4752-.4565-1.2403-.4534-1.709.0095l-5.3897,5.3125-2.2068-2.1213c-.4751-.4565-1.23865-.4518-1.709.011-.46873.4629-.4639,1.2066.01128,1.6631l3.06532,2.9497Z" transform="matrix(.887926 0 0 0.926656 1.569068 1.173565)" clip-rule="evenodd" fill="#8adf53" fill-rule="evenodd"/><path d="M10.686135,13.213063c.740194,6.5002,6.299324,1.5375,6.258145,1.5375q-.041179,0-6.258146.48557" transform="translate(.000001 0.000002)" fill="none" stroke="#3f5787" stroke-width="0.5"/><ellipse rx="7.823961" ry="5.476772" transform="translate(15.379488 15.853816)" fill="#d2dbed" stroke-width="0"/><ellipse rx="2.8" ry="3.2" transform="translate(15.379488 15.853816)" fill="#d2dbed" stroke-width="0"/><ellipse rx="8.503411" ry="8.87999" transform="translate(15.523614 16.498057)" fill="#8adf53" stroke-width="0"/><polygon points="0,-6.757392 1.985948,-2.733422 6.426661,-2.088149 3.213331,1.044074 3.971895,5.466845 0,3.378696 -3.971895,5.466845 -3.213331,1.044074 -6.426661,-2.088149 -1.985948,-2.733422 0,-6.757392" transform="translate(14 13.858339)" fill="#d3d3d3" stroke-width="0"/></svg>