<svg cache-id="2a94a10c00114ee28bbfcab27ca778ef" id="eY96vsgLSRw1" xmlns="http://www.w3.org/2000/svg" xmlns:xlink="http://www.w3.org/1999/xlink" viewBox="0 0 33 32" shape-rendering="geometricPrecision" text-rendering="geometricPrecision"><path d="M25.4696,19.7122c-.4144.4016-.6048.9824-.5104,1.552l1.4224,7.872c.12.6672-.1616,1.3424-.72,1.728-.5472.4-1.2752.448-1.872.128l-7.0864-3.696c-.2464-.1312-.52-.2016-.8-.2096h-.4336c-.1504.0224-.2976.0704-.432.144L7.94959,30.9442c-.3504.176-.7472.2384-1.136.176-.9472-.1792-1.5792-1.0816-1.424-2.0336l1.424-7.872c.0944-.5744-.096-1.1584-.5104-1.5664l-5.777599-5.6c-.4832-.4688-.6512-1.1728-.4304-1.808.2144-.6336.7616-1.096,1.422399-1.2l7.952-1.15357c.60481-.0624,1.13601-.4304,1.40801-.9744l3.504-7.184c.0832-.16.1904-.3072.32-.432l.144-.112c.0752-.0832.1616-.152.2576-.207998l.1744-.064.272-.112h.6736c.6016.0624,1.1312.422398,1.408.959998l3.5504,7.152c.256.5232.7536.8864,1.328.9744l7.952,1.15357c.672.096,1.2336.56,1.456,1.2.2096.6416.0288,1.3456-.464,1.808l-5.984,5.664Z" fill="#8adf53"/></svg>